<?xml version="1.0" encoding="UTF-8" standalone="no"?>
<!-- Created with Inkscape (http://www.inkscape.org/) -->

<svg
   width="23.816887mm"
   height="15.901447mm"
   viewBox="0 0 23.816887 15.901447"
   version="1.1"
   id="svg5"
   xml:space="preserve"
   inkscape:version="1.2.1 (9c6d41e410, 2022-07-14)"
   sodipodi:docname="frame.svg"
   inkscape:export-filename="frame.png"
   inkscape:export-xdpi="96"
   inkscape:export-ydpi="96"
   xmlns:inkscape="http://www.inkscape.org/namespaces/inkscape"
   xmlns:sodipodi="http://sodipodi.sourceforge.net/DTD/sodipodi-0.dtd"
   xmlns="http://www.w3.org/2000/svg"
   xmlns:svg="http://www.w3.org/2000/svg"><sodipodi:namedview
     id="namedview7"
     pagecolor="#ffffff"
     bordercolor="#000000"
     borderopacity="0.25"
     inkscape:showpageshadow="2"
     inkscape:pageopacity="0.0"
     inkscape:pagecheckerboard="0"
     inkscape:deskcolor="#d1d1d1"
     inkscape:document-units="mm"
     showgrid="false"
     showguides="true"
     inkscape:zoom="1.8707912"
     inkscape:cx="281.69899"
     inkscape:cy="785.22925"
     inkscape:window-width="1366"
     inkscape:window-height="705"
     inkscape:window-x="-8"
     inkscape:window-y="-8"
     inkscape:window-maximized="1"
     inkscape:current-layer="layer1"><sodipodi:guide
       position="-20.937374,-119.01342"
       orientation="-1,0"
       id="guide402"
       inkscape:locked="false"
       inkscape:label=""
       inkscape:color="rgb(0,134,229)" /><sodipodi:guide
       position="-36.937374,-134.63043"
       orientation="-1,0"
       id="guide404"
       inkscape:locked="false"
       inkscape:label=""
       inkscape:color="rgb(0,134,229)" /></sodipodi:namedview><defs
     id="defs2" /><g
     inkscape:label="Layer 1"
     inkscape:groupmode="layer"
     id="layer1"
     transform="translate(-114.02494,-57.085268)"><path
       style="fill:#000000;stroke-width:0.051626"
       d="m 114.57361,72.867543 c -0.37832,-0.19953 -0.60652,-0.657613 -0.53589,-1.075696 0.0457,-0.270754 0.3113,-0.608455 0.58047,-0.738187 l 0.21833,-0.10523 -7.4e-4,-0.413064 -7.4e-4,-0.413063 -0.25098,-0.138379 c -0.19557,-0.107827 -0.28089,-0.198401 -0.38645,-0.410238 -0.0745,-0.149523 -0.13497,-0.354417 -0.13434,-0.455321 0.002,-0.36219 0.29071,-0.796315 0.6197,-0.932587 l 0.15355,-0.0636 V 65.037144 61.95211 l -0.1481,-0.06135 c -0.32625,-0.13514 -0.62629,-0.588379 -0.62629,-0.946094 0,-0.09472 0.061,-0.294549 0.13548,-0.444072 0.10556,-0.211837 0.19088,-0.302411 0.38645,-0.410238 l 0.25098,-0.138379 7.4e-4,-0.415627 7.4e-4,-0.415627 -0.22733,-0.110445 c -0.7569,-0.367731 -0.76639,-1.451699 -0.0159,-1.815007 0.54528,-0.263965 1.17139,-0.02987 1.40305,0.524586 l 0.0806,0.192893 h 0.33419 0.33418 l 0.0806,-0.192893 c 0.17861,-0.427477 0.54904,-0.656104 1.00912,-0.622825 0.40392,0.02922 0.69062,0.220547 0.83991,0.560523 l 0.11099,0.252761 h 7.1502 7.1502 l 0.111,-0.252761 c 0.29051,-0.661582 1.24965,-0.773303 1.68938,-0.196781 0.0707,0.09267 0.15277,0.232275 0.18241,0.310233 0.0512,0.134543 0.071,0.141743 0.39004,0.141743 h 0.33615 l 0.0806,-0.192893 c 0.23577,-0.564264 0.8831,-0.797731 1.42273,-0.51312 0.73119,0.385642 0.71037,1.441131 -0.0356,1.803541 l -0.22733,0.110445 7.5e-4,0.415627 7.4e-4,0.415627 0.25098,0.138379 c 0.19557,0.107827 0.28089,0.198401 0.38645,0.410238 0.0745,0.149523 0.13547,0.349356 0.13547,0.444072 0,0.357715 -0.30003,0.810954 -0.62629,0.946094 l -0.1481,0.06135 v 3.085034 3.085034 l 0.1481,0.06135 c 0.32626,0.13514 0.6263,0.588379 0.6263,0.946094 0,0.09472 -0.061,0.294549 -0.13548,0.444072 -0.10556,0.211837 -0.19088,0.302411 -0.38645,0.410238 l -0.25098,0.138379 -7.4e-4,0.415627 -7.4e-4,0.415627 0.22733,0.110445 c 0.2706,0.131468 0.46418,0.370516 0.54449,0.672379 0.0744,0.279743 0.0295,0.517336 -0.15192,0.803417 -0.42597,0.671674 -1.46692,0.563249 -1.77972,-0.185375 l -0.0806,-0.192893 h -0.33418 c -0.32819,0 -0.33545,0.003 -0.40449,0.167785 -0.34778,0.829945 -1.50928,0.88455 -1.85932,0.08741 l -0.11099,-0.252761 h -7.1502 -7.1502 l -0.111,0.252761 c -0.35003,0.79714 -1.51153,0.742535 -1.85931,-0.08741 -0.069,-0.164775 -0.0763,-0.167785 -0.40449,-0.167785 h -0.33418 l -0.0806,0.192893 c -0.23335,0.558482 -0.88863,0.794815 -1.42274,0.51312 z m 0.81448,-0.371914 c 0.40025,-0.262259 0.36966,-0.8748 -0.0537,-1.075715 -0.24178,-0.114731 -0.39873,-0.106099 -0.6056,0.03331 -0.31325,0.211096 -0.39095,0.541283 -0.20078,0.853199 0.18362,0.301161 0.56216,0.384433 0.86011,0.189208 z m 2.7525,-0.01701 c 0.30936,-0.227054 0.34948,-0.632671 0.0903,-0.913337 -0.40521,-0.438868 -1.07124,-0.171853 -1.07124,0.429466 0,0.495526 0.57712,0.780217 0.98089,0.483871 z m 16.17775,0.07636 c 0.50762,-0.212101 0.53282,-0.91355 0.0412,-1.146845 -0.26006,-0.123404 -0.51174,-0.06651 -0.72424,0.163706 -0.15892,0.172158 -0.17172,0.209935 -0.1495,0.441134 0.0268,0.278899 0.13491,0.434839 0.37492,0.540782 0.19841,0.08758 0.25061,0.08772 0.45762,0.0012 z m 2.74371,-0.0031 c 0.31951,-0.1335 0.4752,-0.547896 0.32062,-0.853386 -0.0834,-0.164799 -0.3784,-0.362932 -0.54039,-0.362932 -0.2041,0 -0.47597,0.15664 -0.56258,0.324137 -0.17652,0.341342 -0.0568,0.696647 0.29505,0.876088 0.21477,0.109516 0.26013,0.111013 0.4873,0.01609 z m -20.23588,-0.945282 c 0.17303,-0.414225 0.50198,-0.632418 0.95344,-0.632418 0.43573,0 0.81724,0.267564 0.97567,0.684273 l 0.0539,0.141743 h 7.12695 7.12694 l 0.0539,-0.141743 c 0.15844,-0.416709 0.53994,-0.684273 0.97568,-0.684273 0.45145,0 0.7804,0.218193 0.95343,0.632418 l 0.0809,0.193598 h 0.33419 0.33418 l 0.0807,-0.193598 c 0.10603,-0.25422 0.36117,-0.513204 0.57515,-0.583824 l 0.1715,-0.0566 V 70.563226 70.16028 l -0.28401,-0.138954 c -0.33043,-0.161663 -0.53939,-0.4602 -0.58109,-0.830188 -0.0375,-0.332981 0.17731,-0.753894 0.47337,-0.927393 0.12106,-0.07095 0.25873,-0.128996 0.30592,-0.128996 0.079,0 0.0858,-0.243857 0.0858,-3.091108 v -3.091107 l -0.15064,-0.03013 c -0.33314,-0.06663 -0.72325,-0.57347 -0.72586,-0.943061 -0.003,-0.409261 0.22381,-0.761885 0.60079,-0.934475 l 0.27571,-0.126224 v -0.40522 -0.405221 l -0.1715,-0.0566 c -0.21398,-0.07062 -0.46912,-0.329604 -0.57515,-0.583824 l -0.0807,-0.193598 h -0.33418 -0.33419 l -0.0809,0.193598 c -0.17303,0.414225 -0.50198,0.632418 -0.95343,0.632418 -0.43573,0 -0.81724,-0.267564 -0.97568,-0.684273 l -0.0539,-0.141743 h -7.12694 -7.12695 l -0.0539,0.141743 c -0.15843,0.416709 -0.53994,0.684273 -0.97567,0.684273 -0.45146,0 -0.78041,-0.218193 -0.95344,-0.632418 l -0.0809,-0.193598 h -0.33418 -0.33418 l -0.0807,0.193598 c -0.10604,0.25422 -0.36117,0.513204 -0.57515,0.583824 l -0.17151,0.0566 v 0.402947 0.402946 l 0.28401,0.138954 c 0.33043,0.161663 0.53939,0.4602 0.5811,0.830188 0.0375,0.332981 -0.17732,0.753894 -0.47337,0.927393 -0.12107,0.07095 -0.25873,0.128996 -0.30593,0.128996 -0.079,0 -0.0858,0.244294 -0.0858,3.097561 0,2.853267 0.007,3.097561 0.0858,3.097561 0.0472,0 0.18486,0.05805 0.30593,0.128996 0.29605,0.173499 0.5109,0.594412 0.47337,0.927393 -0.0417,0.369988 -0.25067,0.668525 -0.5811,0.830188 l -0.28401,0.138954 v 0.402946 0.402947 l 0.17151,0.0566 c 0.21398,0.07062 0.46911,0.329604 0.57515,0.583824 l 0.0807,0.193598 h 0.33418 0.33418 z m -1.42007,-1.949756 c 0.0833,-0.04307 0.18668,-0.146461 0.22975,-0.229753 0.22438,-0.433901 -0.0646,-0.930958 -0.5412,-0.930958 -0.34731,0 -0.61951,0.272562 -0.61951,0.620342 0,0.479432 0.49415,0.766255 0.93096,0.540369 z m 21.71151,-0.0068 c 0.37863,-0.248092 0.36201,-0.873622 -0.0286,-1.075606 -0.56704,-0.293223 -1.14603,0.285319 -0.85287,0.85221 0.14829,0.286761 0.60722,0.403074 0.88145,0.223396 z M 115.4061,61.499884 c 0.40387,-0.20885 0.40387,-0.873548 0,-1.082398 -0.43967,-0.22736 -0.93096,0.05825 -0.93096,0.541199 0,0.477252 0.49648,0.765875 0.93096,0.541199 z m 21.68293,0 c 0.27994,-0.144767 0.38981,-0.543133 0.23326,-0.845853 -0.28935,-0.559546 -1.16422,-0.330611 -1.16422,0.304654 0,0.477252 0.49648,0.765875 0.93096,0.541199 z m -21.75468,-2.845518 c 0.31857,-0.151171 0.44268,-0.612116 0.23968,-0.890174 -0.0544,-0.07446 -0.18833,-0.179801 -0.2977,-0.234086 -0.18064,-0.08966 -0.21801,-0.09202 -0.40799,-0.02581 -0.36427,0.126953 -0.54506,0.542931 -0.37878,0.871541 0.0834,0.164799 0.3784,0.362932 0.54039,0.362932 0.0696,0 0.20658,-0.03798 0.3044,-0.0844 z m 2.90256,-0.150532 c 0.15904,-0.173534 0.17175,-0.211297 0.14942,-0.443692 -0.0282,-0.293325 -0.16846,-0.475263 -0.43402,-0.562906 -0.3728,-0.123032 -0.79262,0.183799 -0.79262,0.579294 0,0.608946 0.66795,0.873901 1.07722,0.427304 z m 16.13453,0.156659 c 0.34645,-0.164401 0.45554,-0.655447 0.21035,-0.94684 -0.3793,-0.450766 -1.03906,-0.244948 -1.09543,0.341729 -0.0208,0.216176 -0.005,0.271857 0.11936,0.419574 0.22644,0.269106 0.46685,0.327359 0.76572,0.185537 z m 2.77204,-0.03944 c 0.0961,-0.06474 0.20371,-0.17509 0.23919,-0.245224 0.16628,-0.32861 -0.0145,-0.744588 -0.37877,-0.871541 -0.18998,-0.06621 -0.22735,-0.06385 -0.408,0.02581 -0.10937,0.05429 -0.24333,0.159624 -0.29769,0.234086 -0.2004,0.274494 -0.0805,0.73445 0.23147,0.888214 0.23502,0.115824 0.40857,0.106961 0.6138,-0.03135 z"
       id="path4825"
       inkscape:export-filename="frame3.svg"
       inkscape:export-xdpi="96"
       inkscape:export-ydpi="96" /></g></svg>
