<?xml version="1.0" encoding="UTF-8" standalone="no"?>
<!-- Created with Inkscape (http://www.inkscape.org/) -->

<svg
   width="210mm"
   height="297mm"
   viewBox="0 0 210 297"
   version="1.1"
   id="svg4674"
   inkscape:version="1.2.1 (9c6d41e410, 2022-07-14)"
   sodipodi:docname="frame2.svg"
   xmlns:inkscape="http://www.inkscape.org/namespaces/inkscape"
   xmlns:sodipodi="http://sodipodi.sourceforge.net/DTD/sodipodi-0.dtd"
   xmlns="http://www.w3.org/2000/svg"
   xmlns:svg="http://www.w3.org/2000/svg">
  <sodipodi:namedview
     id="namedview4676"
     pagecolor="#ffffff"
     bordercolor="#000000"
     borderopacity="0.25"
     inkscape:showpageshadow="2"
     inkscape:pageopacity="0.0"
     inkscape:pagecheckerboard="0"
     inkscape:deskcolor="#d1d1d1"
     inkscape:document-units="mm"
     showgrid="false"
     inkscape:zoom="0.50333193"
     inkscape:cx="79.47042"
     inkscape:cy="562.25322"
     inkscape:window-width="1366"
     inkscape:window-height="705"
     inkscape:window-x="-8"
     inkscape:window-y="-8"
     inkscape:window-maximized="1"
     inkscape:current-layer="layer1" />
  <defs
     id="defs4671" />
  <g
     inkscape:label="Layer 1"
     inkscape:groupmode="layer"
     id="layer1">
    <path
       id="path248"
       style="fill:#000000;stroke-width:0.264583"
       d="m 82.675341,146.75861 c -0.156042,1.41888 1.430394,1.2288 2.426657,1.19062 0.570357,0 1.140715,0 1.711073,0 0.05261,-1.01425 0.105489,-2.02849 0.15864,-3.04271 0.687986,0 1.375971,0 2.063957,0 0.05315,1.01422 0.106031,2.02846 0.15864,3.04271 1.367004,0.0518 2.734017,0.10326 4.101041,0.1545 0,-1.33032 0,-2.66065 0,-3.99097 -1.058333,0 -2.116667,0 -3.175,0 0,-0.78496 0,-1.56993 0,-2.35489 1.014223,-0.0532 2.028459,-0.10606 3.042709,-0.1587 0.05167,-1.26642 0.103346,-2.53283 0.15502,-3.79925 -0.454499,-0.12095 -1.174804,-0.005 -1.477946,-0.2606 0,-3.76199 0,-7.52399 0,-11.28598 0.451696,-0.12089 1.180105,-0.005 1.474232,-0.26052 -0.05043,-1.23608 -0.10087,-2.47215 -0.151306,-3.70823 -1.014223,-0.0532 -2.028459,-0.10606 -3.042709,-0.1587 0,-0.77618 0,-1.55236 0,-2.32854 1.014223,-0.0532 2.028459,-0.10606 3.042709,-0.1587 0.05202,-1.2864 0.10404,-2.57279 0.15606,-3.85919 -1.374937,0.0517 -2.749875,0.10333 -4.124812,0.155 -0.05261,1.01425 -0.105489,2.02849 -0.15864,3.04271 -0.687986,0 -1.375971,0 -2.063957,0 -0.05261,-1.01425 -0.105489,-2.02849 -0.15864,-3.04271 -1.282209,0.0542 -2.604829,-0.14039 -3.85319,0.16221 -0.188149,0.73529 -0.294779,1.26363 -1.195548,1.02841 -3.298179,0 -6.596358,0 -9.894537,0 0.154994,-1.41877 -1.430607,-1.22887 -2.427176,-1.19062 -0.570356,0 -1.140712,0 -1.711068,0 -0.05261,1.01425 -0.105489,2.02849 -0.15864,3.04271 -0.687813,0 -1.375627,0 -2.06344,0 -0.05305,-1.01424 -0.106106,-2.02847 -0.15916,-3.04271 -1.374765,-0.0517 -2.74953,-0.10334 -4.124296,-0.155 0.05202,1.2864 0.10404,2.57279 0.15606,3.85919 1.01425,0.0526 2.028486,0.10554 3.042708,0.1587 0,0.77618 0,1.55236 0,2.32854 -1.01425,0.0526 -2.028486,0.10554 -3.042708,0.1587 -0.05167,1.26642 -0.103347,2.53283 -0.15502,3.79925 0.454299,0.12082 1.174531,0.005 1.47743,0.2606 0,3.76199 0,7.52399 0,11.28598 -0.451524,0.12081 -1.179764,0.005 -1.473716,0.26052 0.05044,1.23608 0.100871,2.47215 0.151306,3.70823 1.01425,0.0526 2.028486,0.10554 3.042708,0.1587 0,0.78496 0,1.56993 0,2.35489 -1.058333,0 -2.116667,0 -3.175,0 0,1.33032 0,2.66065 0,3.99097 1.367024,-0.0512 2.734038,-0.10274 4.101042,-0.1545 0.05261,-1.01425 0.105489,-2.02849 0.15864,-3.04271 0.687813,0 1.375627,0 2.06344,0 0.05305,1.01424 0.106106,2.02847 0.15916,3.04271 1.282209,-0.0542 2.604829,0.14039 3.853189,-0.16221 0.188149,-0.73529 0.294779,-1.26363 1.195548,-1.02841 3.29818,0 6.59636,0 9.89454,0 z m -19.36316,-29.89792 c 1.629356,-0.42552 1.431979,2.72955 -0.283161,1.84942 -1.190095,0.23051 -0.980425,-2.43705 0.283161,-1.84942 z m 6.403744,0 c 1.708229,-0.48475 1.326016,2.72324 -0.342099,1.84937 -1.212735,0.20452 -0.953983,-2.47928 0.342099,-1.84937 z m 15.112773,0 c 1.70824,-0.48481 1.326034,2.72328 -0.342096,1.84936 -1.212727,0.20446 -0.953979,-2.47922 0.342096,-1.84936 z m 6.40426,0 c 1.675515,-0.41716 1.227432,2.73397 -0.410946,1.84984 -1.229532,0.22385 -0.778413,-2.43882 0.410946,-1.84984 z m -19.363159,28.575 c 0.14112,-1.21883 -1.084909,-1.35001 -2.041836,-1.28877 -0.502853,-0.0902 -1.388081,0.20205 -1.173142,-0.60587 -0.04317,-0.82368 -0.08634,-1.64735 -0.129511,-2.47102 -1.014222,-0.0532 -2.028458,-0.10606 -3.042708,-0.1587 -0.08989,-1.10344 0.308699,-2.47703 -0.600614,-3.30154 -1.701596,-0.28395 -0.65808,-2.79274 -0.984616,-4.02174 -0.0044,-2.47727 -0.0014,-4.95454 -0.0023,-7.4318 1.048441,0.10997 1.7643,-0.5688 1.534273,-1.67637 0.135759,-0.45724 -0.159431,-1.34541 0.261011,-1.51797 0.944959,-0.0497 1.889935,-0.099 2.834919,-0.14816 0.05269,-1.00579 0.105399,-2.01159 0.15812,-3.01738 0.974709,-0.11825 2.039436,0.0637 2.938615,-0.34809 0.263067,-0.74518 0.02152,-1.74122 1.259581,-1.24443 3.264855,0.065 6.530443,0.0169 9.79527,-0.0239 -0.109491,1.04866 0.56582,1.76861 1.675871,1.53737 0.45745,0.13569 1.345725,-0.15929 1.518426,0.26105 0.04911,0.94516 0.09855,1.8903 0.148135,2.83543 1.005808,0.0523 2.011604,0.10489 3.017386,0.1577 0.118023,0.97468 -0.06327,2.0389 0.347505,2.93845 0.512729,0.3277 1.587763,-0.0773 1.265312,0.88405 -0.03193,3.36788 0.08287,6.74111 -0.09806,10.10454 -0.177137,0.91911 -1.820176,0.73451 -1.474427,2.11886 -0.109981,0.58334 0.128465,1.45482 -0.105993,1.8988 -0.983924,0.0511 -1.967832,0.10241 -2.95173,0.15397 -0.0528,1.00561 -0.10534,2.01123 -0.15761,3.01687 -0.969479,0.10489 -2.003376,-0.0361 -2.916696,0.32709 -0.162612,0.74992 -0.293428,1.2487 -1.180678,1.0217 -3.298148,-6e-5 -6.596541,1.2e-4 -9.894535,-9e-5 z m -5.328874,-25.4 c 1.708229,-0.48475 1.326018,2.72324 -0.342099,1.84937 -1.212735,0.20452 -0.953983,-2.47928 0.342099,-1.84937 z m 21.462773,0 c 1.708229,-0.48475 1.326029,2.72326 -0.342096,1.84937 -1.212741,0.20452 -0.953976,-2.47925 0.342096,-1.84937 z m -24.629505,3.175 c 1.87233,-0.42198 1.017853,2.84256 -0.628758,1.83334 -0.860661,-0.21232 -0.586312,-2.40754 0.628758,-1.83334 z m 27.796236,0 c 1.827566,-0.43366 1.225233,2.84469 -0.500514,1.8318 -0.854169,-0.19575 -0.790314,-2.40752 0.500514,-1.8318 z m -27.858248,15.61042 c 1.629356,-0.42552 1.431978,2.72954 -0.283161,1.84942 -1.190095,0.23051 -0.980425,-2.43705 0.283161,-1.84942 z m 27.920777,0 c 1.675515,-0.41716 1.227432,2.73397 -0.410946,1.84984 -1.229532,0.22385 -0.778413,-2.43882 0.410946,-1.84984 z m -24.692033,3.175 c 1.70824,-0.4848 1.326021,2.72325 -0.342099,1.84937 -1.212734,0.20452 -0.953985,-2.47929 0.342099,-1.84937 z m 21.462773,0 c 1.70824,-0.48481 1.326034,2.72328 -0.342096,1.84936 -1.212721,0.20446 -0.954,-2.47927 0.342096,-1.84936 z m -24.629505,3.175 c 1.87233,-0.42198 1.017853,2.84256 -0.628758,1.83334 -0.860661,-0.21232 -0.586312,-2.40754 0.628758,-1.83334 z m 6.341732,0 c 1.70824,-0.4848 1.326021,2.72325 -0.342099,1.84937 -1.212734,0.20452 -0.953985,-2.47929 0.342099,-1.84937 z m 15.112773,0 c 1.70824,-0.48481 1.326034,2.72328 -0.342096,1.84936 -1.212721,0.20446 -0.954,-2.47927 0.342096,-1.84936 z m 6.341731,0 c 1.827566,-0.43366 1.225233,2.84469 -0.500514,1.8318 -0.854169,-0.19575 -0.790314,-2.40752 0.500514,-1.8318 z"
       sodipodi:nodetypes="ccscccccccccccccccccccccccccccccccccccccccccccsccccscccccccccccccccccccccccccccccccccccccccccccscccscsssssssssssssssscsccccccccsssccccccccccccccccccccccssscccccccccssssssssssssssssssssscsssssscsssssssssssssssssssssssssssssss"
       inkscape:export-filename="path248.png"
       inkscape:export-xdpi="96"
       inkscape:export-ydpi="96" />
  </g>
</svg>
