<?xml version="1.0" encoding="UTF-8" standalone="no"?>
<!-- Created with Inkscape (http://www.inkscape.org/) -->

<svg
   width="210mm"
   height="297mm"
   viewBox="0 0 210 297"
   version="1.1"
   id="svg1832"
   inkscape:version="1.2.1 (9c6d41e410, 2022-07-14)"
   sodipodi:docname="mini boiboite.svg"
   xmlns:inkscape="http://www.inkscape.org/namespaces/inkscape"
   xmlns:sodipodi="http://sodipodi.sourceforge.net/DTD/sodipodi-0.dtd"
   xmlns="http://www.w3.org/2000/svg"
   xmlns:svg="http://www.w3.org/2000/svg">
  <sodipodi:namedview
     id="namedview1834"
     pagecolor="#ffffff"
     bordercolor="#000000"
     borderopacity="0.25"
     inkscape:showpageshadow="2"
     inkscape:pageopacity="0.0"
     inkscape:pagecheckerboard="0"
     inkscape:deskcolor="#d1d1d1"
     inkscape:document-units="mm"
     showgrid="false"
     inkscape:zoom="0.66142459"
     inkscape:cx="426.35246"
     inkscape:cy="438.44757"
     inkscape:window-width="1366"
     inkscape:window-height="705"
     inkscape:window-x="-8"
     inkscape:window-y="-8"
     inkscape:window-maximized="1"
     inkscape:current-layer="layer1" />
  <defs
     id="defs1829" />
  <g
     inkscape:label="Layer 1"
     inkscape:groupmode="layer"
     id="layer1">
    <g
       id="g2070"
       transform="translate(-7.9866886,8.1549525)"
       inkscape:export-filename="miniboiboite.png"
       inkscape:export-xdpi="96"
       inkscape:export-ydpi="96">
      <path
         style="fill:#ff0000;stroke:#ff0000;stroke-width:0.385063;stroke-dasharray:none"
         d="m 160.46736,128.70922 c 7.12911,-7.32065 13.00095,-13.37873 13.04858,-13.46238 0.2383,-0.4186 3.65908,-10.67875 3.58501,-10.7528 -0.13053,-0.13054 -29.36688,-10.347614 -29.61736,-10.350214 -0.16038,-0.002 -27.78049,9.595024 -29.53332,10.261434 l -0.27206,0.10339 1.51266,4.44707 c 0.83196,2.4459 1.67585,4.8989 1.87531,5.4511 l 0.36263,1.00402 12.96288,13.30431 c 7.12959,7.31737 12.99683,13.30432 13.0383,13.30432 0.0414,0 5.90828,-5.98965 13.03737,-13.3103 z m -12.49609,9.15807 0.43895,-0.40124 v -1.81135 c 0,-0.99626 -0.0239,-1.81136 -0.0529,-1.81136 -0.0293,0 -0.22472,0.18406 -0.43454,0.4088 l -0.3815,0.40881 0.0258,-2.37911 0.0258,-2.37913 14.60812,-12.51489 c 8.03447,-6.88318 14.62549,-12.49971 14.64671,-12.48113 0.0583,0.051 -0.96628,3.09629 -1.19545,3.55315 -0.10993,0.21931 -0.2381,0.41554 -0.28467,0.43606 -0.14132,0.0622 -1.12706,3.19623 -1.01692,3.2331 0.0564,0.0192 -0.14208,0.73022 -0.44099,1.58074 l -0.54355,1.5464 -1.21728,1.22353 c -0.66949,0.67296 -1.24607,1.17695 -1.28128,1.12 -0.0938,-0.15191 -1.93696,1.74962 -2.01748,2.08141 -0.0637,0.26229 -1.94404,2.24785 -1.90069,2.00699 0.0115,-0.0599 0.0135,-0.13843 0.006,-0.17443 -0.0291,-0.14787 -2.3185,2.28975 -2.38912,2.5438 -0.0928,0.33367 -2.20244,2.55704 -2.20244,2.32114 0,-0.0915 -0.0352,-0.16635 -0.0784,-0.16635 -0.16635,0 -2.75068,2.79039 -2.75331,2.97289 -0.002,0.18252 -1.424,1.81619 -2.38354,2.73951 -0.35233,0.33905 -0.4294,0.37767 -0.38052,0.1908 0.0337,-0.129 0.0154,-0.23437 -0.0397,-0.23437 -0.21142,0 -3.26839,3.32835 -3.34729,3.64445 -0.0533,0.21384 -1.02346,1.29059 -2.93437,3.25697 l -2.85466,2.93751 -0.0302,-1.72572 -0.03,-1.72573 z m -1.28101,1.54799 0.0302,-1.6675 0.2998,0.23601 0.2998,0.236 v 1.76151 1.76149 l -0.33001,-0.33 -0.33,-0.33002 z m -2.73321,-1.09691 c -1.68671,-1.74497 -2.52383,-2.68809 -2.52383,-2.84342 0,-0.15037 -0.56526,-0.82561 -1.60152,-1.91315 -0.88085,-0.92442 -1.64454,-1.68076 -1.6971,-1.68076 -0.0526,0 -0.0624,0.11032 -0.022,0.24529 0.0555,0.18425 -0.0676,0.10974 -0.49456,-0.29979 -1.00384,-0.96291 -2.28976,-2.44515 -2.29268,-2.64271 -0.002,-0.18675 -2.59773,-2.9716 -2.76895,-2.9716 -0.0474,0 -0.0562,0.0778 -0.0196,0.1727 0.0364,0.0949 0.0275,0.15633 -0.02,0.13631 -0.22701,-0.0957 -2.1848,-2.26089 -2.25589,-2.4949 -0.10242,-0.33739 -2.34566,-2.63843 -2.34566,-2.40618 0,0.2449 -1.70546,-1.47941 -1.86602,-1.88663 -0.12302,-0.31219 -2.0431,-2.40235 -2.07146,-2.25502 -0.008,0.037 -0.004,0.11609 0.008,0.17616 0.0283,0.15634 -1.70436,-1.55752 -2.0626,-2.04037 -0.16539,-0.22283 -0.33426,-0.37151 -0.37538,-0.33038 -0.0412,0.0412 -0.047,0.002 -0.0135,-0.0859 0.0339,-0.0884 -0.15633,-0.81044 -0.42268,-1.60465 -0.26637,-0.79421 -0.46556,-1.44403 -0.44263,-1.44403 0.0229,0 -0.0757,-0.12649 -0.21899,-0.28125 -0.34938,-0.37699 -1.1956,-2.88021 -0.97365,-2.88021 0.11957,0 0.12958,-0.0451 0.0429,-0.1908 -0.0624,-0.10493 -0.37796,-0.97569 -0.70112,-1.93503 -0.32317,-0.95933 -0.59136,-1.69335 -0.59599,-1.63115 -0.004,0.0622 0.23659,0.84437 0.53599,1.73812 0.29943,0.89375 0.50237,1.57872 0.45101,1.52213 -0.17078,-0.1881 -1.31907,-3.64589 -1.21079,-3.64589 0.0585,0 0.10647,0.0735 0.10647,0.16346 0,0.0899 0.0449,0.15133 0.0997,0.13631 0.0549,-0.0154 6.40191,5.36791 14.10447,11.96199 l 14.00467,11.98926 0.0788,2.47139 0.0787,2.47139 0.4249,0.41488 0.4249,0.41491 -0.004,1.64037 -0.004,1.64036 -0.37069,-0.39856 c -0.20387,-0.21921 -0.39567,-0.37356 -0.42622,-0.34301 -0.0306,0.0306 -0.0266,0.83539 0.01,1.78852 0.0354,0.95313 0.0399,1.73296 0.01,1.73296 -0.0302,0 -1.19058,-1.17495 -2.57871,-2.611 z m 3.58892,-1.88591 0.008,-1.66248 0.39042,-0.32515 0.39041,-0.32515 -0.0591,1.66927 c -0.0583,1.64379 -0.0637,1.67413 -0.36417,1.98763 -0.1677,0.17521 -0.32037,0.31837 -0.33913,0.31837 -0.0192,0 -0.0306,-0.74812 -0.0262,-1.66249 z m 7.46111,-2.64709 c 0.82147,-0.86749 1.51289,-1.57727 1.53646,-1.57727 0.0235,0 0.0429,0.0495 0.0429,0.11012 0,0.17232 -2.99225,3.28646 -3.03491,3.15848 -0.021,-0.0628 0.6341,-0.8238 1.45557,-1.69131 z m -16.66357,-1.32829 c -0.0504,-0.0859 -0.0693,-0.17867 -0.0422,-0.20601 0.0801,-0.0801 3.02276,3.07494 3.02257,3.24049 -1.9e-4,0.13978 -2.77646,-2.68689 -2.9805,-3.03448 z m 8.19088,-0.87096 c -0.0464,-2.52056 -0.0841,-2.39164 0.5404,-1.84431 0.24012,0.21045 0.24528,0.26429 0.24528,2.56523 v 2.35029 l -0.37156,-0.37975 -0.37155,-0.37973 z m 0.41514,-2.13923 -0.42505,-0.35961 14.79603,-12.31186 c 8.13783,-6.77152 14.85369,-12.34199 14.92416,-12.37882 0.0705,-0.0368 0.25849,-0.0116 0.41785,0.0558 0.2816,0.11937 -0.12495,0.47796 -14.44459,12.7397 -8.10389,6.93928 -14.75887,12.61629 -14.78885,12.6156 -0.03,-6.7e-4 -0.24578,-0.16307 -0.47955,-0.36086 z m 13.88919,-1.59537 c 0.67546,-0.72173 1.24596,-1.31224 1.2678,-1.31224 0.0218,0 0.0397,0.0566 0.0397,0.12572 0,0.14691 -2.41413,2.6202 -2.48668,2.54766 -0.0269,-0.027 0.50374,-0.63942 1.17918,-1.36116 z m -28.12238,-1.21243 c 0.004,-0.16847 2.49422,2.39351 2.49813,2.57108 0.001,0.0599 -0.56119,-0.45928 -1.25006,-1.15388 -0.68886,-0.69457 -1.25049,-1.33231 -1.24807,-1.4172 z m -0.42852,-9.75493 c -7.68128,-6.57824 -13.96596,-11.99734 -13.96596,-12.04243 0,-0.19675 0.56791,-0.216 0.81831,-0.0277 0.14248,0.10705 6.53954,5.41924 14.21588,11.80485 l 13.95698,11.61017 -0.4053,0.35326 c -0.2229,0.1943 -0.46123,0.33281 -0.5296,0.3078 -0.0684,-0.025 -6.40902,-5.42765 -14.09031,-12.0059 z m 5.47221,3.21502 c -5.26473,-4.38147 -9.58581,-8.00335 -9.60239,-8.04861 -0.0173,-0.0452 0.37586,-0.27066 0.87211,-0.50087 0.49627,-0.23019 1.49963,-0.70459 2.22971,-1.05419 0.73006,-0.34962 1.40051,-0.63566 1.48986,-0.63566 0.0893,0 0.17886,-0.0404 0.19883,-0.0899 0.0578,-0.14286 2.39361,-1.22283 2.50117,-1.15634 0.0533,0.0329 0.097,0.0173 0.097,-0.0366 0,-0.0955 1.97341,-1.07656 2.28933,-1.13808 0.0899,-0.0173 0.18965,-0.0666 0.22157,-0.10897 0.11552,-0.15345 2.19784,-1.06743 2.29505,-1.00736 0.0549,0.0339 0.0997,0.008 0.0997,-0.0587 0,-0.12688 1.76572,-0.98259 2.02764,-0.98259 0.0839,0 0.15268,-0.0389 0.15268,-0.0864 0,-0.0476 0.41855,-0.27487 0.9301,-0.50527 0.51156,-0.23039 0.90636,-0.44263 0.87735,-0.47165 -0.0291,-0.0291 -0.45748,0.13708 -0.95211,0.36901 -0.49463,0.23196 -0.96795,0.40622 -1.0518,0.38722 -0.0839,-0.0192 -0.12784,0.006 -0.0976,0.0545 0.0302,0.0489 -0.4187,0.30602 -0.99744,0.5712 -0.57877,0.26519 -1.54287,0.71725 -2.14245,1.00459 -0.59959,0.28733 -1.65433,0.78882 -2.34384,1.11443 -0.68953,0.32559 -1.84237,0.87232 -2.56188,1.21496 -0.71951,0.34265 -1.36457,0.63203 -1.43345,0.64304 -0.0689,0.0115 -0.19157,0.0697 -0.27255,0.13034 -0.0811,0.0606 -0.71142,0.37192 -1.40095,0.69179 -0.68952,0.31985 -1.69364,0.79432 -2.23138,1.0544 -0.81846,0.39582 -1.00871,0.45106 -1.16796,0.3391 -0.10454,-0.0735 -2.10126,-1.7281 -4.43699,-3.67677 -2.47817,-2.0675 -4.1937,-3.57223 -4.11932,-3.61318 0.13592,-0.0749 27.57854,-9.792037 27.89683,-9.878064 0.17617,-0.0476 0.18849,0.217947 0.19042,4.055887 l 0.002,4.106787 -1.26203,0.59297 c -0.69411,0.32615 -1.35661,0.593 -1.47223,0.593 -0.18367,0 -0.19287,0.0279 -0.073,0.2217 0.088,0.14209 0.14883,0.17155 0.16982,0.0818 0.0383,-0.16481 2.4685,-1.33561 2.73107,-1.31574 0.29598,0.0223 2.74169,1.20837 2.74169,1.32951 0,0.0616 0.0649,0.0872 0.14401,0.0568 0.0793,-0.0304 0.58208,0.15922 1.11741,0.42124 0.53536,0.26207 1.9545,0.93616 3.15369,1.49797 1.19916,0.5618 2.21634,1.07286 2.26039,1.13566 0.0441,0.0628 0.0809,0.0809 0.0818,0.0401 0.002,-0.0762 2.30198,0.97489 2.40002,1.09664 0.03,0.0372 0.12803,0.0834 0.21802,0.10243 0.0899,0.0192 0.76543,0.3257 1.50109,0.68135 0.73566,0.35562 1.35552,0.64659 1.37747,0.64659 0.0219,0 0.84271,0.38333 1.8239,0.85184 0.9812,0.46853 1.94528,0.91676 2.1424,0.99608 0.19713,0.0793 0.3443,0.1856 0.32705,0.23604 -0.0514,0.15056 -19.09778,15.99353 -19.23929,16.0035 -0.0716,0.006 -4.43769,-3.57565 -9.70243,-7.95713 z m -9.54199,2.02495 c -0.12457,-0.17982 0.2258,0.11437 0.7785,0.65409 0.5527,0.53963 1.05611,1.07927 1.11871,1.19918 0.14786,0.28321 -1.6005,-1.42461 -1.89721,-1.85327 z m 37.50335,0.78694 c 0.55193,-0.55193 1.00349,-0.96072 1.00349,-0.90842 0,0.13804 -1.88037,2.0385 -1.94907,1.96978 -0.0318,-0.0318 0.39367,-0.50945 0.94558,-1.06136 z m 4.08817,-4.1969 c 0.46194,-0.46194 0.8399,-0.79827 0.8399,-0.7474 0,0.13746 -1.55311,1.71395 -1.62131,1.64577 -0.0322,-0.0322 0.31947,-0.43643 0.78141,-0.89837 z m -45.51661,-0.62363 c -0.12438,-0.17982 0.17366,0.0643 0.66244,0.54252 0.4887,0.47827 0.88857,0.91826 0.88857,0.97773 0,0.13882 -1.25317,-1.08948 -1.55101,-1.52025 z m -3.34483,-4.31722 c -0.23219,-0.68341 -0.45927,-1.34069 -0.50461,-1.46062 -0.056,-0.14787 -0.0466,-0.18291 0.0291,-0.10897 0.0612,0.0599 0.29649,0.67318 0.52264,1.36269 0.22613,0.68954 0.4363,1.32728 0.46701,1.41721 0.0308,0.0899 0.0225,0.134 -0.0173,0.098 -0.0406,-0.036 -0.26387,-0.62477 -0.49606,-1.30819 z m 44.15946,-2.82648 c -0.02,-0.0589 -0.0782,-0.0814 -0.129,-0.0501 -0.0508,0.0314 -0.74575,-0.2557 -1.54416,-0.63809 -0.79842,-0.38238 -2.18752,-1.04113 -3.08691,-1.46387 -1.56701,-0.73653 -2.74934,-1.29429 -5.12374,-2.41713 -0.59958,-0.28356 -1.44581,-0.67806 -1.88053,-0.87668 -0.4347,-0.19863 -0.79036,-0.40294 -0.79036,-0.45402 0,-0.051 -0.0836,-0.0928 -0.18579,-0.0928 -0.10224,0 -0.62952,-0.21252 -1.17192,-0.47224 -0.54238,-0.25975 -1.57485,-0.75051 -2.29436,-1.09058 l -1.30819,-0.61831 -0.0264,-4.099027 c -0.0208,-3.2281 0.002,-4.088597 0.10897,-4.049997 0.0745,0.0269 6.42766,2.273337 14.11815,4.991917 7.69051,2.718577 13.9453,4.977547 13.89953,5.019937 -0.0458,0.0424 -2.03577,1.69817 -4.42221,3.67955 l -4.339,3.60249 -0.89377,-0.43191 c -0.49157,-0.23754 -0.91021,-0.48015 -0.93033,-0.53912 z m -47.15873,-6.30592 c -0.0724,-0.11706 -1.2297,0.29725 15.41193,-5.518347 7.64184,-2.67053 13.94568,-4.835887 14.00852,-4.811917 0.0628,0.0239 0.0406,0.0734 -0.0493,0.10994 -0.58429,0.23725 -29.07838,10.302154 -29.18256,10.308084 -0.0714,0.004 -0.15633,-0.0354 -0.18868,-0.0878 z m 43.87031,-5.186077 c -7.58477,-2.68271 -13.83955,-4.925067 -13.89951,-4.982997 -0.0599,-0.058 0.52873,0.11821 1.3082,0.391417 0.77946,0.27324 7.14528,2.49944 14.14627,4.94713 7.001,2.447687 12.69288,4.486557 12.64862,4.530817 -0.0443,0.0443 -0.15537,0.0605 -0.24677,0.0358 -0.0914,-0.0245 -6.37202,-2.23955 -13.95681,-4.922257 z"
         id="path11" />
      <path
         style="fill:#ff0000;stroke:#ff0000;stroke-width:0.320379"
         d="m 77.458291,76.185996 v -1.86488 h 0.254305 0.254306 v -1.44102 -1.44104 h -0.254306 -0.254305 v -1.90726 -1.90725 h 15.42757 15.427569 v 1.90725 1.90726 h -0.29669 -0.29667 v 1.44104 1.44102 h 0.29667 0.29669 v 1.86488 1.86487 h -2.50062 -2.50063 v -0.29669 -0.29668 h -1.44104 -1.44102 v 0.29668 0.29669 h -1.568196 -1.568178 v -0.29669 -0.29668 h -1.441039 -1.441039 v 0.29668 0.29669 h -1.568191 -1.568179 v -0.29669 -0.29668 H 89.83426 88.393221 v 0.29668 0.29669 h -1.568192 -1.568191 v -0.29669 -0.29668 h -1.398642 -1.398654 v 0.29668 0.29669 H 79.95891 77.458291 Z m 4.831714,1.44104 v -0.33907 h 1.568191 1.568179 v 0.33907 0.33906 h 1.441039 1.441038 v -0.34098 -0.34098 l 1.546993,0.0232 1.546993,0.0232 0.02645,0.3199 0.02645,0.3199 1.414615,-0.0232 1.414602,-0.0232 0.02645,-0.31977 0.02645,-0.31977 1.541767,0.0231 1.541768,0.0231 0.02645,0.3199 0.02645,0.3199 1.414603,-0.0232 1.414597,-0.0232 0.0264,-0.31977 0.0265,-0.31977 1.54177,0.0231 1.54177,0.0231 0.0263,0.31921 0.0263,0.31921 2.34708,-0.0226 2.34709,-0.0226 v -1.73771 -1.73773 l -0.31977,-0.0265 -0.31977,-0.0264 0.0231,-1.54177 0.0231,-1.54176 0.31787,-0.0263 0.31788,-0.0263 v -1.7326 -1.73261 H 92.885654 77.542852 v 1.73773 1.73771 h 0.29669 0.296689 v 1.5682 1.56817 h -0.296689 -0.29669 v 1.7801 1.78012 h 2.373479 2.373466 z m 27.125395,-1.39867 v -1.82247 h -0.29669 -0.29668 v -1.5682 -1.56818 h 0.29501 0.29499 l 0.0228,-1.8013 0.0228,-1.80128 h 14.83419 14.83421 l 0.0228,1.80128 0.0228,1.8013 h 0.295 0.295 v 1.56818 1.5682 h -0.29669 -0.29667 v 1.82247 1.8225 h -2.20394 -2.20393 v -0.29669 -0.29668 h -1.44104 -1.44104 v 0.29668 0.29669 h -1.56819 -1.56818 v -0.29669 -0.29668 h -1.44104 -1.44104 v 0.29668 0.29669 h -1.56818 -1.5682 v -0.29669 -0.29668 h -1.44103 -1.44104 v 0.29668 0.29669 h -1.56818 -1.56818 v -0.29669 -0.29668 h -1.44103 -1.44104 v 0.29668 0.29669 h -2.20395 -2.20394 z m 4.30716,1.37559 0.0265,-0.31978 1.54175,0.0231 1.54177,0.0231 0.0263,0.31787 0.0263,0.31787 h 1.38843 1.38841 l 0.0263,-0.31787 0.0263,-0.31787 h 1.56819 1.56818 l 0.0263,0.31787 0.0263,0.31787 h 1.38842 1.38843 l 0.0263,-0.31787 0.0263,-0.31787 h 1.56818 1.56819 l 0.0263,0.31787 0.0263,0.31787 h 1.38841 1.38842 l 0.0263,-0.31787 0.0263,-0.31787 1.54177,-0.0231 1.54176,-0.0231 0.0265,0.31978 0.0264,0.31976 2.0556,0.0227 2.0556,0.0227 v -1.824 -1.82399 h 0.29668 0.29669 v -1.44104 -1.44104 h -0.29669 -0.29668 v -1.8225 -1.82247 h -14.70698 -14.70705 v 1.82247 1.8225 h -0.29668 -0.29669 v 1.44104 1.44104 h 0.29669 0.29668 v 1.82399 1.824 l 2.05559,-0.0227 2.05561,-0.0227 z m 31.37968,0.15022 v -0.29668 h -2.11917 -2.11917 v -2.11917 -2.11917 h -0.29668 -0.29669 v -1.61057 -1.61057 h 0.29669 0.29668 v -1.39866 -1.39865 h -0.29668 -0.29669 v -1.56818 -1.56819 h 0.29669 0.29668 v -1.44104 -1.44103 h -0.29668 -0.29669 v -1.56819 -1.56819 h 0.29669 0.29668 v -1.44104 -1.44104 h -0.29668 -0.29669 v -1.56817 -1.5682 h 0.29669 0.29668 v -2.16155 -2.16156 h 2.11917 2.11917 v -0.25431 -0.25429 h 1.56818 1.56819 v 0.25429 0.25431 h 1.44104 1.44104 v -0.25431 -0.25429 h 1.56819 1.56818 v 0.25429 0.25431 h 1.44104 1.44104 v -0.25431 -0.25429 h 1.56818 1.5682 v 0.25429 0.25431 h 1.44103 1.44104 v -0.25431 -0.25429 h 1.56818 1.56819 v 0.25284 0.25284 l 2.14036,0.0226 2.14038,0.0226 0.0226,2.14037 0.0226,2.14038 h 0.2529 0.25284 v 1.56819 1.56818 h -0.25429 -0.25431 v 1.44103 1.44104 h 0.25431 0.25429 v 1.56818 1.56819 h -0.25429 -0.25431 v 1.44104 1.44104 h 0.25431 0.25429 v 1.56819 1.56818 h -0.25429 -0.25431 v 1.39866 1.39865 h 0.25431 0.25429 v 1.61058 1.61056 h -0.25429 -0.25431 v 2.11917 2.11918 h -2.16154 -2.16158 v 0.29667 0.29669 h -1.56818 -1.56818 v -0.29669 -0.29667 h -1.44104 -1.44103 v 0.29667 0.29669 h -1.5682 -1.56819 v -0.29669 -0.29667 h -1.4411 -1.44104 v 0.29667 0.29669 h -1.56819 -1.56819 v -0.29669 -0.29667 h -1.44104 -1.44104 v 0.29667 0.29669 h -1.56818 -1.56818 z m 3.03565,-0.15022 0.0264,-0.31978 1.54176,0.0231 1.54177,0.0231 0.0264,0.3199 0.0265,0.31989 1.4146,-0.0232 1.41462,-0.0232 0.0265,-0.31977 0.0264,-0.31977 1.54175,0.0231 1.54177,0.0231 0.0265,0.3199 0.0265,0.31989 1.4146,-0.0232 1.41462,-0.0232 0.0265,-0.31976 0.0264,-0.31977 1.54175,0.0231 1.54177,0.0231 0.0263,0.31786 0.0263,0.31789 h 1.38842 1.38843 l 0.0263,-0.31789 0.0263,-0.31786 2.14036,-0.0227 2.14036,-0.0226 v -2.11771 -2.11772 h 0.29669 0.29668 v -1.44104 -1.44104 h -0.29668 -0.29669 v -1.56817 -1.5682 h 0.29669 0.29668 v -1.44102 -1.44104 h -0.29668 -0.29669 v -1.56819 -1.56819 h 0.29669 0.29668 v -1.44103 -1.44104 h -0.29668 -0.29669 v -1.56819 -1.56818 h 0.29669 0.29668 v -1.39867 -1.39864 h -0.29668 -0.29669 v -2.16157 -2.16156 h -2.16154 -2.16156 v -0.29667 -0.29669 h -1.39866 -1.39866 v 0.29669 0.29667 h -1.56818 -1.56819 v -0.29667 -0.29669 h -1.44104 -1.44102 v 0.29669 0.29667 h -1.56821 -1.56817 v -0.29667 -0.29669 h -1.44104 -1.44104 v 0.29669 0.29667 h -1.56818 -1.56819 v -0.29667 -0.29669 h -1.44104 -1.44104 v 0.29669 0.29667 h -2.11771 -2.11771 l -0.0226,2.14038 -0.0226,2.14037 -0.31787,0.0262 -0.31788,0.0263 v 1.38841 1.38843 l 0.31788,0.0263 0.31787,0.0262 0.0231,1.54178 0.0231,1.54175 -0.31976,0.0265 -0.31977,0.0264 -0.0232,1.41462 -0.0232,1.4146 0.3199,0.0264 0.31989,0.0265 0.0231,1.54176 0.0231,1.54177 -0.31976,0.0265 -0.31976,0.0264 -0.0232,1.4146 -0.0232,1.41462 0.31991,0.0265 0.3199,0.0265 0.0231,1.54699 0.0231,1.54699 h -0.34098 -0.34097 v 1.44104 1.44104 h 0.33906 0.33908 v 2.11916 2.11918 h 2.11917 2.11916 v 0.34112 0.34111 l 1.41984,-0.0232 1.41986,-0.0232 z M 77.458291,65.294736 v -1.90854 h 0.254305 0.254306 v -1.39865 -1.39865 h -0.254306 -0.254305 v -1.90726 -1.90725 h 15.42757 15.427569 v 1.90725 1.90726 h -0.29669 -0.29667 v 1.39865 1.39865 h 0.29667 0.29669 v 1.90726 1.90725 h -2.50062 -2.50063 v -0.29668 -0.29669 h -1.44104 -1.44102 v 0.29669 0.29668 h -1.568196 -1.568178 v -0.29668 -0.29669 h -1.441039 -1.441039 v 0.29669 0.29668 h -1.568191 -1.568179 v -0.29668 -0.29669 H 89.83426 88.393221 v 0.29669 0.29668 h -1.568192 -1.568191 v -0.29668 -0.29669 h -1.393274 -1.393287 l -0.02658,0.27549 -0.02658,0.27551 -2.479434,0.0224 -2.47942,0.0224 z m 4.831714,1.43976 v -0.29669 h 1.568191 1.568179 v 0.29669 0.29667 h 1.441039 1.441038 v -0.29667 -0.29669 h 1.568192 1.568178 v 0.29669 0.29667 h 1.441039 1.441039 v -0.29667 -0.29669 h 1.568178 1.568205 v 0.29669 0.29667 h 1.441025 1.441042 v -0.29667 -0.29669 h 1.56819 1.56818 v 0.29669 0.29667 h 2.37348 2.37347 v -1.73771 -1.73772 h -0.33907 -0.33907 v -1.56819 -1.56818 h 0.33907 0.33907 v -1.73773 -1.73771 H 92.885861 77.543059 v 1.73771 1.73773 h 0.29669 0.29669 v 1.56818 1.56819 h -0.29669 -0.29669 v 1.73772 1.73771 h 2.373479 2.373467 z m 27.125395,-1.35627 v -1.82249 h -0.29669 -0.29668 v -1.56819 -1.56818 h 0.29668 0.29669 v -1.8225 -1.82248 h 14.87658 14.87659 v 1.82248 1.8225 h 0.29669 0.29667 v 1.56818 1.56819 h -0.29667 -0.29669 v 1.82249 1.82248 h -2.20395 -2.20393 v -0.29668 -0.29669 h -1.44103 -1.44104 v 0.29669 0.29668 h -1.56818 -1.56819 v -0.29668 -0.29669 h -1.44104 -1.44104 v 0.29669 0.29668 h -1.56819 -1.56818 v -0.29668 -0.29669 h -1.44104 -1.44104 v 0.29669 0.29668 h -1.56819 -1.56818 v -0.29668 -0.29669 h -1.44104 -1.44104 v 0.29669 0.29668 h -2.20393 -2.20394 z m 4.32312,1.35627 v -0.29669 h 1.56818 1.56819 v 0.29669 0.29667 h 1.39864 1.39867 v -0.29667 -0.29669 h 1.61056 1.61058 v 0.29669 0.29667 h 1.39864 1.39865 v -0.29667 -0.29669 h 1.61058 1.61056 v 0.29669 0.29667 h 1.39867 1.39864 v -0.29667 -0.29669 h 1.56819 1.56819 v 0.29669 0.29667 h 2.07679 2.07678 v -1.82247 -1.8225 h 0.29669 0.29668 v -1.39865 -1.39865 h -0.29668 -0.29669 v -1.82249 -1.82248 h -14.70535 -14.70537 l -0.0228,1.80128 -0.0228,1.80131 -0.2755,0.0266 -0.27549,0.0266 v 1.38791 1.3879 l 0.27549,0.0266 0.2755,0.0266 0.0228,1.80131 0.0228,1.80129 h 2.0751 2.07511 z"
         id="path13" />
      <path
         style="fill:#ff0000;stroke:#000000;stroke-width:0.772504"
         d="m 44.721908,96.433703 c -0.344697,-0.38026 -0.400994,-0.8652 -0.49186,-4.224471 l -0.102718,-3.79493 -0.585689,-0.19457 c -0.560997,-0.18667 -0.696308,-0.0889 -3.204992,2.41901 -2.237173,2.23223 -2.712835,2.61377 -3.258326,2.61377 -0.832606,0 -1.501556,-0.66964 -1.501556,-1.50166 0,-0.54519 0.381241,-1.02105 2.613772,-3.25822 2.503351,-2.50889 2.605279,-2.6442 2.419004,-3.205 l -0.194571,-0.58569 -3.834237,-0.10173 c -3.72431,-0.0998 -3.845398,-0.11555 -4.224466,-0.5847 -0.426674,-0.52741 -0.502725,-1.27547 -0.189633,-1.85988 0.348648,-0.65186 1.37069,-0.82569 4.842353,-0.82569 h 3.346327 l 0.238029,-0.52149 c 0.226177,-0.49779 0.119508,-0.641 -2.334558,-3.11699 -1.414641,-1.42748 -2.63234,-2.79886 -2.70602,-3.04756 -0.25877,-0.87409 0.597541,-1.88082 1.609212,-1.89188 0.492848,-0.005 1.060956,0.44939 3.270277,2.61782 2.555993,2.50848 2.698909,2.61515 3.236104,2.41317 l 0.561984,-0.21136 v -5.52493 c 0,-15.854685 0.0031,-29.949332 0.423711,-30.483662 0.745692,-0.948164 2.211691,-0.663715 2.620686,0.509638 0.15704,0.451365 0.226177,19.372958 0.226177,30.290274 v 5.22202 l 0.547169,0.24889 c 0.532355,0.24198 0.622233,0.17482 3.221881,-2.41989 2.93358,-2.92756 3.346229,-3.13497 4.313653,-2.16755 0.96693,0.96693 0.759519,1.38008 -2.167543,4.31366 -2.594414,2.59974 -2.661871,2.68982 -2.419892,3.22188 l 0.248893,0.54717 3.390674,0.0198 c 1.86492,0.01 3.612406,0.079 3.883324,0.15803 1.209502,0.33877 1.543434,1.77119 0.626184,2.68814 -0.372352,0.37235 -0.692358,0.40396 -4.145354,0.40396 h -3.741791 l -0.211361,0.56198 c -0.201485,0.5373 -0.09877,0.68051 2.413275,3.23621 2.168233,2.20922 2.623155,2.77762 2.617821,3.27017 -0.0099,1.01168 -1.017795,1.86799 -1.891883,1.60922 -0.248893,-0.0691 -1.61741,-1.28862 -3.041631,-2.7001 -2.531302,-2.50858 -2.602316,-2.56053 -3.168053,-2.32685 l -0.578776,0.23901 0.05926,3.11374 c 0.06914,3.527071 -0.01975,4.298441 -0.585689,4.862401 -0.539268,0.53927 -1.651188,0.52248 -2.154209,-0.0296 z"
         id="path14"
         sodipodi:nodetypes="cscscssssccsssccssssscscsscssssscccsscccccssccccc" />
      <path
         style="fill:#000000;stroke-width:0.74734"
         d="m 86.834917,138.68992 c 0.30001,-0.3 0.3094,-2.02191 0.0142,-2.59344 -0.12276,-0.23754 -0.44114,-0.61152 -0.70762,-0.83106 -0.4253,-0.35037 -0.49722,-0.60409 -0.58845,-2.0762 -0.0715,-1.15241 -0.33623,-2.41936 -0.84655,-4.04987 -0.40844,-1.30504 -0.86083,-2.97554 -1.00526,-3.71227 -0.25492,-1.30039 -0.25008,-1.34827 0.17004,-1.64249 0.38286,-0.26831 0.43267,-0.48253 0.43267,-1.86208 0,-0.85743 -0.0892,-1.6141 -0.19823,-1.68152 -0.13245,-0.082 -0.13245,-0.24523 0,-0.493 0.10908,-0.20365 0.19823,-0.84829 0.19823,-1.4323 0,-2.7152 -2.7653,-4.46571 -5.2629,-3.33148 -1.53188,0.69563 -2.47379,2.60783 -2.05348,4.16875 0.14783,0.54858 0.15011,0.90728 0.009,1.1734 -0.11279,0.21077 -0.20508,0.96117 -0.20508,1.66745 0,1.24787 0.20679,1.74378 0.8105,1.94509 0.30234,0.10083 -0.17972,2.40347 -1.09706,5.24129 -0.38616,1.1945 -0.70739,2.5638 -0.71388,3.04284 -0.0228,1.72302 -0.28112,2.62287 -0.93961,3.27805 -0.56612,0.56336 -0.63049,0.74602 -0.63049,1.78947 0,0.6402 0.10653,1.26864 0.23726,1.39937 0.33906,0.33903 12.03909,0.33903 12.37814,0 z m -11.03354,-1.74358 c 0,-0.39064 0.10025,-0.39787 4.79243,-0.34603 4.38263,0.0484 4.79813,0.0826 4.85897,0.39898 0.0618,0.32196 -0.27144,0.34603 -4.79244,0.34603 -4.74142,0 -4.85896,-0.009 -4.85896,-0.39898 z m 1.45015,-3.35797 0.18742,-1.38414 h 3.23478 3.23479 l 0.002,0.64263 c 0.002,0.35346 0.0572,0.97632 0.12475,1.38416 l 0.12247,0.74148 h -3.54686 -3.5469 z m 0.58592,-3.31203 c 0.79901,-2.63659 1.14439,-3.92873 1.34773,-5.04222 l 0.24381,-1.33472 h 1.21085 1.21084 l 0.22957,1.33472 c 0.20451,1.18962 0.98396,4.11996 1.34119,5.04222 0.1239,0.31994 -0.0855,0.34603 -2.77733,0.34603 -2.68086,0 -2.90305,-0.0285 -2.80649,-0.34603 z m 0.53447,-8.35425 c 0,-0.37153 0.13187,-0.39548 2.17506,-0.39548 2.04325,0 2.17507,0.0228 2.17507,0.39548 0,0.37147 -0.13187,0.39545 -2.17507,0.39545 -2.04324,0 -2.17506,-0.0228 -2.17506,-0.39545 z m 0.44128,-2.42227 c -0.83796,-1.70453 0.10424,-3.31205 1.94148,-3.31205 0.94137,0 1.96737,1.10104 1.96737,2.11132 0,0.42168 -0.13843,0.96447 -0.30781,1.20617 -0.27315,0.39007 -0.48067,0.43946 -1.84507,0.43946 -1.39755,0 -1.55711,-0.0404 -1.75597,-0.4449 z m -14.48041,11.87925 c 6.68621,-1.04326 11.47696,-1.87828 11.63005,-2.02713 0.21505,-0.20877 -0.003,-1.96928 -1.25377,-10.0851 -0.8328,-5.40763 -1.47075,-9.87542 -1.41768,-9.92848 0.053,-0.0533 1.9233,0.49146 4.15613,1.21002 3.85357,1.24012 4.09302,1.2925 4.71656,1.03189 0.36127,-0.15096 0.75843,-0.39958 0.88258,-0.55239 0.44353,-0.54581 4.43991,-13.253071 4.30658,-13.693671 -0.31678,-1.04681 -0.83183,-1.28609 -7.31156,-3.39659 -3.49737,-1.13913 -6.52728,-2.07079 -6.73315,-2.07039 -0.20593,4e-4 -0.659,0.17431 -1.00691,0.38648 -0.54872,0.33455 -0.71671,0.65572 -1.26653,2.42149 -0.34866,1.11968 -0.69133,2.10252 -0.76148,2.18415 -0.0701,0.0815 -5.06148,0.90484 -11.09185,1.82946 -6.03037,0.9246 -11.1645,1.768001 -11.4092,1.874181 -0.24466,0.10595 -0.44529,0.30619 -0.44578,0.44447 -4.8e-4,0.13842 1.07912,7.28083 2.39914,15.8724 2.28498,14.87204 2.57473,16.38538 3.11952,16.29315 0.0647,-0.0114 5.23399,-0.81825 11.48735,-1.79394 z m -13.037,-14.69417 c -1.24326,-8.10033 -2.22206,-14.76042 -2.17507,-14.80018 0.17175,-0.14526 20.35037,-3.166231 20.45447,-3.062121 0.0592,0.0592 0.0171,0.34583 -0.094,0.63718 -0.15922,0.41869 -0.27429,0.49306 -0.54929,0.3548 -0.22843,-0.11478 -3.46218,0.306531 -9.42234,1.227881 -7.25281,1.12122 -9.11645,1.46947 -9.28367,1.73484 -0.1558,0.24723 0.31365,3.73596 1.83561,13.64365 1.12466,7.3214 2.08364,13.41596 2.13109,13.54348 0.0476,0.1276 0.21846,0.28255 0.38027,0.34472 0.49767,0.19084 18.32446,-2.63175 18.64603,-2.95243 0.2478,-0.24723 0.11022,-1.41974 -1.05938,-9.03852 -0.73926,-4.81496 -1.38977,-9.03818 -1.4456,-9.38486 -0.0903,-0.56051 -0.0564,-0.61856 0.30659,-0.52368 0.24067,0.0629 0.45076,0.32151 0.5122,0.63037 0.31376,1.57776 2.92162,19.04051 2.85363,19.10853 -0.0752,0.0752 -19.87889,3.20593 -20.53354,3.24606 -0.24238,0.0142 -0.70995,-2.67505 -2.5571,-14.70972 z m 2.39247,-0.15124 c -1.01494,-6.66103 -1.86025,-12.24129 -1.87845,-12.40053 -0.0256,-0.23214 1.53367,-0.53351 7.87623,-1.52105 4.35016,-0.67735 8.00817,-1.19969 8.1289,-1.16084 0.42035,0.1353 0.45262,1.87982 0.0561,3.03225 -0.5355,1.55645 -0.48532,1.94578 0.35788,2.77667 l 0.7324,0.72175 1.40623,9.09576 c 1.16599,7.54174 1.35754,9.1075 1.12122,9.16447 -0.6158,0.14839 -14.99657,2.36524 -15.46084,2.38327 l -0.49434,0.0199 z m 10.21912,8.26029 c 1.36639,-0.22758 1.79938,-0.47495 1.80653,-1.03155 10e-4,-0.12988 -0.17403,-0.36005 -0.39073,-0.51175 -0.28454,-0.19937 -0.40792,-0.54037 -0.44489,-1.22976 -0.0493,-0.92115 -0.0293,-0.95974 0.57902,-1.12198 0.81209,-0.21647 1.44602,-1.02993 1.44602,-1.8554 0,-0.84727 -0.80821,-1.81519 -1.64708,-1.97259 l -0.63459,-0.11905 -0.67113,-4.51855 -0.67114,-4.51852 -1.0735,-1.20515 c -1.82835,-2.05256 -2.09742,-2.03197 -3.24393,0.24837 l -0.80206,1.59519 0.63273,4.16334 c 0.348,2.28985 0.68025,4.40806 0.73836,4.70713 0.0812,0.41832 0.0293,0.54376 -0.22473,0.54376 -0.18172,0 -0.54872,0.21846 -0.81565,0.48537 -0.37011,0.3701 -0.48535,0.69457 -0.48535,1.36653 0,0.74128 0.0966,0.96254 0.60839,1.39313 0.42826,0.36037 0.83801,0.51192 1.38411,0.51192 0.42669,0 0.77965,0.0666 0.7844,0.14839 0.006,0.0815 0.0817,0.52647 0.17118,0.98869 0.0894,0.46218 0.0914,0.84035 0.006,0.84035 -0.28881,0 -0.41852,0.80557 -0.17659,1.09703 0.27884,0.33586 1.08906,0.33461 3.12595,-0.003 z m -1.3542,-1.75956 c 0,-0.14954 -0.053,-0.53733 -0.11792,-0.86174 -0.0957,-0.47865 -0.0436,-0.60933 0.27656,-0.69307 0.31439,-0.082 0.41878,0.0171 0.51346,0.49101 0.20763,1.03833 0.14611,1.33569 -0.27657,1.33569 -0.2176,0 -0.39548,-0.12248 -0.39548,-0.27201 z m -2.92994,-3.22966 c 0.0518,-0.26973 0.44797,-0.38591 1.96449,-0.57637 1.04468,-0.13102 2.23708,-0.33177 2.64973,-0.4457 0.41265,-0.11393 0.82536,-0.16064 0.91714,-0.10396 0.32675,0.20194 0.15978,0.66723 -0.27799,0.77424 -1.46118,0.35729 -3.35367,0.65501 -4.2658,0.67111 -0.89178,0.0142 -1.04265,-0.033 -0.98754,-0.31924 z m 0.84847,-6.56031 c -0.65177,-4.19866 -0.66587,-4.4032 -0.34977,-5.06607 0.18115,-0.37993 0.38525,-0.69079 0.45353,-0.69079 0.0683,0 0.36241,0.24866 0.6537,0.55274 0.48511,0.50639 0.58614,0.9171 1.20361,4.89394 0.3707,2.38763 0.63678,4.37987 0.59127,4.4272 -0.088,0.0917 -1.71593,0.35595 -1.81468,0.29463 -0.0322,-0.0199 -0.36412,-2.00523 -0.73766,-4.41165 z m -5.05707,1.5759 c 0.21561,-0.13643 0.24637,-0.46862 0.13985,-1.50877 -0.16605,-1.62111 -0.38286,-2.06703 -1.00481,-2.06703 -0.67346,0 -0.75265,0.23897 -0.59608,1.7979 0.17147,1.70823 0.65054,2.2911 1.46104,1.7779 z m 19.89239,-6.62887 c -3.26261,-1.05895 -6.0088,-1.9987 -6.10265,-2.08833 -0.14412,-0.13757 3.66535,-12.359491 3.93702,-12.631161 0.11677,-0.11678 12.11502,3.76237 12.46484,4.03004 0.20565,0.15723 -0.14099,1.42407 -1.70026,6.213201 -2.34451,7.20049 -2.12118,6.60173 -2.42144,6.49164 -0.135,-0.0496 -2.91489,-0.95647 -6.17751,-2.01539 z m 5.0191,-1.22406 c 0.25321,-0.17745 0.58848,-0.62909 0.74507,-1.00389 0.25606,-0.61272 0.24894,-0.75471 -0.0704,-1.40775 -0.94898,-1.94123 -3.61764,-1.35215 -3.61764,0.79862 0,1.52874 1.71846,2.47063 2.94289,1.61302 z m -1.36103,-1.65489 c 0,-0.21761 0.12817,-0.39548 0.28493,-0.39548 0.34931,0 0.57267,0.32538 0.40716,0.59318 -0.21504,0.34794 -0.69209,0.21162 -0.69209,-0.19767 z m -3.74172,-0.38027 c 1.0653,-1.0653 0.64157,-2.76858 -0.79589,-3.19924 -0.97293,-0.29152 -1.90137,0.16121 -2.30312,1.12261 -0.36212,0.86667 -0.1914,1.53692 0.55,2.16085 0.82901,0.69757 1.79927,0.66552 2.54901,-0.0843 z m -1.69596,-1.40205 c 0,-0.42385 0.57455,-0.36264 0.65789,0.0701 0.051,0.26431 -0.0296,0.34478 -0.29388,0.29391 -0.20024,-0.0385 -0.36401,-0.20223 -0.36401,-0.36401 z m 8.81439,-2.15715 c 0.74903,-0.74906 0.78176,-1.720061 0.0857,-2.547131 -0.92181,-1.09549 -2.57049,-0.87644 -3.19058,0.4239 -0.94166,1.974691 1.54959,3.678371 3.10473,2.123231 z m -1.70963,-1.22375 c -0.14897,-0.241251 0.29505,-0.603831 0.548,-0.447491 0.0869,0.0536 0.15779,0.22558 0.15779,0.382411 0,0.33552 -0.50955,0.38255 -0.70574,0.0652 z m -4.31242,-0.0658 c 1.17339,-0.507621 1.54796,-1.552191 0.96256,-2.684251 -1.05681,-2.04365 -4.243,-0.66942 -3.51457,1.51589 0.34407,1.03218 1.56967,1.593291 2.55201,1.168361 z m -1.07667,-1.757431 c -0.043,-0.22216 0.0695,-0.32966 0.34603,-0.32966 0.22559,0 0.40998,0.11878 0.40998,0.26375 0,0.60562 -0.64051,0.66154 -0.75601,0.0661 z"
         id="path2" />
      <path
         style="fill:#ffffff;stroke:#000000;stroke-width:1.011;stroke-dasharray:none"
         d="m 92.541016,102.14773 c -0.07033,-0.14456 -0.04036,-0.34913 0.143283,-0.97947 0.86628,-2.97423 3.244493,-5.784358 6.149781,-7.266655 2.4147,-1.232038 9.3793,-0.837783 11.81483,-0.347308 0.31207,0.06285 0.72404,0.139936 0.91546,0.171298 l 0.34811,0.05704 0.56302,-1.933105 c 0.53231,-1.827618 0.57419,-1.939202 0.76732,-2.045212 0.11266,-0.06118 0.27144,-0.0925 0.3535,-0.06867 0.0882,0.02553 1.28519,1.976596 2.924,4.765264 1.52612,2.59697 2.80286,4.791102 2.83717,4.875826 0.16037,0.39587 0.0686,0.452783 -4.50763,2.796112 -6.1578,3.15322 -5.5895,2.88173 -5.77823,2.76019 -0.33004,-0.21248 -0.31944,-0.30025 0.28862,-2.38788 l 0.57508,-1.97442 -1.33815,-0.34047 c -2.07592,-0.528182 -7.62406,-1.429926 -9.526783,-1.064504 -1.820326,0.349603 -3.699956,1.251554 -5.102404,2.448414 -0.428359,0.36558 -0.845797,0.69344 -0.927686,0.72859 -0.210252,0.0906 -0.395875,0.0178 -0.499278,-0.19509 z"
         id="path18-7"
         sodipodi:nodetypes="cccsscsccssssscsssscc" />
    </g>
    <rect
       style="font-variation-settings:'wght' 600;fill:none;fill-opacity:0.15;stroke:#000000;stroke-width:0.1"
       id="rect2063"
       width="162.36"
       height="164.05713"
       x="15.274285"
       y="17.537142" />
  </g>
</svg>
